<?xml version="1.0" standalone="no"?>
<!DOCTYPE svg PUBLIC "-//W3C//DTD SVG 20010904//EN"
 "http://www.w3.org/TR/2001/REC-SVG-20010904/DTD/svg10.dtd">
<svg version="1.0" xmlns="http://www.w3.org/2000/svg"
 width="1536.000000pt" height="960.000000pt" viewBox="0 0 1536.000000 960.000000"
 preserveAspectRatio="xMidYMid meet">
<metadata>
Created by potrace 1.16, written by Peter Selinger 2001-2019
</metadata>
<g transform="translate(0.000000,960.000000) scale(0.100000,-0.100000)"
fill="#000000" stroke="none">
<path d="M7886 8024 c-117 -64 -138 -71 -281 -94 -147 -24 -401 -95 -630 -177
-486 -173 -1100 -505 -1379 -746 -138 -119 -158 -159 -138 -271 9 -47 9 -63
-1 -73 -12 -12 -260 -154 -782 -448 -299 -169 -300 -169 -370 -173 -84 -4
-122 8 -136 45 -9 25 -7 31 20 55 18 16 61 36 103 48 40 11 105 30 143 41 222
66 583 263 680 370 30 34 34 42 24 61 -10 19 -17 20 -71 14 -263 -27 -900
-351 -1030 -523 -29 -38 -35 -80 -17 -115 16 -30 70 -48 144 -48 36 0 65 -4
65 -9 0 -16 -57 -54 -183 -122 -115 -62 -183 -108 -162 -109 6 0 83 41 170 91
246 140 258 145 391 169 481 85 956 259 1469 537 324 176 498 289 622 407 122
115 142 166 107 269 -20 58 -16 63 75 117 139 81 883 501 933 526 42 21 65 26
120 26 79 -1 111 -14 106 -45 -4 -28 -47 -51 -142 -77 -254 -68 -656 -269
-778 -390 -54 -53 -60 -77 -22 -86 147 -37 792 262 1010 468 114 107 94 163
-63 183 -29 4 -53 11 -53 15 0 4 37 30 83 56 111 65 125 74 107 74 -8 0 -69
-30 -134 -66z m-320 -173 c-4 -5 -48 -33 -99 -62 -51 -28 -245 -138 -432 -245
-389 -220 -433 -239 -372 -158 99 133 508 362 812 454 91 28 102 30 91 11z
m-386 -86 c-7 -8 -18 -15 -24 -15 -13 0 -165 -77 -186 -94 -8 -7 -27 -17 -42
-24 -16 -6 -28 -16 -28 -21 0 -5 -12 -12 -26 -15 -14 -4 -39 -16 -55 -26 -16
-11 -42 -29 -59 -40 -16 -11 -32 -20 -35 -20 -11 0 -97 -71 -142 -117 -24 -24
-43 -52 -43 -63 0 -11 -4 -20 -9 -20 -12 0 -11 -84 2 -91 14 -10 17 -168 3
-177 -6 -4 -20 -20 -31 -37 -16 -26 -83 -94 -142 -145 -27 -23 -103 -70 -113
-70 -6 0 -10 -3 -10 -7 0 -5 -10 -13 -23 -19 -12 -6 -67 -37 -122 -69 -299
-175 -372 -214 -505 -273 -25 -11 -74 -33 -110 -50 -118 -54 -208 -92 -217
-92 -5 0 -28 -9 -51 -20 -22 -11 -49 -20 -59 -20 -10 0 -27 -6 -38 -14 -11 -7
-37 -16 -57 -20 -21 -4 -38 -11 -38 -16 0 -6 -4 -10 -10 -10 -24 0 -6 19 43
43 56 29 127 69 167 95 44 28 104 62 123 68 9 4 17 10 17 14 0 5 30 27 68 51
124 78 185 166 155 224 -8 15 -16 41 -18 59 -1 17 -4 36 -5 41 -1 6 -2 36 -1
67 1 54 3 58 51 105 105 102 234 208 284 234 59 30 75 39 147 85 80 52 145 90
186 109 17 8 34 19 38 25 3 5 24 14 46 20 22 6 43 18 46 26 3 7 13 14 22 14 9
0 30 9 46 20 31 21 109 60 120 60 7 0 29 9 125 53 31 14 68 29 83 32 15 4 30
11 33 16 3 5 12 9 19 9 8 0 39 11 69 25 30 14 58 25 63 25 4 0 35 11 68 25 33
13 71 25 86 25 14 0 29 4 35 9 8 8 33 17 58 20 5 0 3 -6 -4 -14z m700 9 c0 -8
-6 -14 -111 -93 -46 -35 -86 -67 -89 -71 -3 -5 -18 -12 -33 -15 -15 -4 -30
-11 -33 -16 -3 -5 -38 -25 -77 -44 -40 -19 -79 -39 -87 -44 -8 -5 -37 -19 -65
-31 -27 -11 -68 -30 -90 -40 -22 -11 -62 -25 -90 -31 -27 -7 -55 -16 -61 -21
-7 -5 -35 -11 -63 -15 -42 -5 -51 -3 -51 10 0 15 99 107 115 107 5 0 16 6 24
14 9 8 68 40 131 71 162 79 190 92 235 106 22 6 49 18 60 25 11 8 31 14 45 14
14 0 38 7 54 15 15 8 41 15 56 15 15 0 47 11 71 24 47 26 59 30 59 20z m-2845
-1164 c3 -5 1 -10 -4 -10 -6 0 -11 -5 -11 -12 0 -14 -40 -58 -52 -58 -9 0 -76
-47 -88 -61 -3 -3 -20 -11 -37 -17 -18 -6 -60 -27 -93 -46 -34 -20 -64 -36
-67 -36 -3 0 -31 -12 -62 -27 -78 -36 -84 -39 -191 -73 -52 -16 -106 -30 -120
-30 -14 -1 -43 -9 -65 -20 -22 -11 -46 -19 -52 -20 -7 0 -13 -4 -13 -8 0 -5
-11 -14 -25 -20 -107 -49 131 141 274 219 20 10 43 23 51 28 34 21 233 111
290 131 19 7 49 19 67 26 17 8 37 14 45 14 7 1 24 7 38 15 29 16 106 20 115 5z
m445 -14 c0 -74 -228 -237 -533 -381 -113 -53 -365 -139 -442 -150 l-40 -6 27
22 c15 12 154 94 310 182 156 88 362 204 458 258 183 104 220 117 220 75z"/>
<path d="M8670 8069 c8 -5 53 -30 101 -54 119 -61 125 -71 47 -78 -83 -8 -122
-23 -138 -52 -36 -67 111 -182 455 -355 173 -88 322 -148 473 -191 100 -29
221 -43 237 -27 4 4 5 18 1 32 -9 37 -123 113 -306 205 -225 114 -388 175
-615 231 -57 14 -107 47 -103 68 7 37 131 54 204 28 54 -19 1051 -531 1105
-567 l24 -16 -18 -55 c-32 -103 -22 -132 80 -229 132 -124 306 -231 668 -409
481 -237 796 -354 1250 -467 115 -28 405 -83 441 -83 13 0 127 -52 254 -116
127 -63 236 -114 243 -111 7 2 -37 29 -98 60 -193 98 -259 134 -262 144 -2 6
30 12 77 16 183 12 211 102 66 216 -228 179 -800 428 -1028 448 -173 15 -93
-83 192 -235 182 -97 431 -190 600 -227 137 -29 193 -82 139 -130 -17 -17 -36
-20 -108 -20 l-86 0 -195 99 c-107 54 -235 120 -285 146 -49 26 -219 113 -376
194 -158 81 -294 155 -302 164 -13 14 -14 25 -6 62 24 103 0 154 -121 250
-154 123 -348 240 -650 391 -381 189 -653 297 -1018 403 -283 82 -422 113
-587 131 -45 5 -95 24 -202 76 -128 62 -196 88 -153 58z m595 -235 c208 -60
529 -205 705 -318 81 -51 170 -132 170 -153 0 -30 8 -34 -720 341 -146 76
-269 141 -274 146 -17 17 26 11 119 -16z m2290 -1246 c66 -33 188 -95 270
-138 83 -43 252 -130 376 -194 231 -118 283 -152 218 -140 -202 37 -437 121
-680 245 -236 120 -359 214 -359 275 0 23 3 25 28 20 15 -4 81 -34 147 -68z"/>
<path d="M8446 6613 c-3 -21 -6 -87 -6 -148 0 -60 -4 -115 -8 -120 -4 -6 -33
-23 -65 -39 -32 -15 -71 -39 -87 -52 -31 -27 -130 -147 -130 -159 0 -4 -9 -20
-20 -35 -56 -79 -122 -249 -154 -398 -69 -316 -66 -764 5 -1102 51 -242 109
-390 193 -497 22 -28 56 -73 75 -98 19 -25 54 -67 78 -93 25 -26 58 -65 74
-86 l29 -39 0 -618 c0 -548 -2 -619 -16 -633 -47 -48 -193 27 -269 138 -48 70
-49 129 -4 172 45 41 72 89 100 169 23 66 24 83 24 290 -1 192 -4 229 -22 295
-48 173 -135 250 -219 195 -83 -54 -144 -281 -144 -531 0 -301 62 -516 194
-676 87 -105 164 -151 274 -164 45 -5 65 -12 72 -25 6 -10 10 -111 10 -226 0
-202 6 -243 29 -229 8 5 11 80 11 239 0 128 4 237 8 243 4 6 34 24 66 40 79
38 208 166 270 267 94 151 137 289 178 572 9 60 13 196 13 410 -1 266 -4 335
-19 410 -52 261 -119 442 -214 580 -21 30 -93 115 -159 189 l-121 134 -7 64
c-3 34 -5 310 -3 611 3 473 5 549 18 558 26 17 102 -1 150 -36 63 -46 80 -68
90 -111 10 -45 0 -73 -39 -110 -122 -114 -152 -645 -48 -851 72 -140 179 -139
242 3 44 96 65 228 65 402 0 250 -28 402 -101 558 -64 135 -183 234 -301 250
-25 4 -51 10 -58 14 -8 5 -14 50 -17 136 -5 140 -9 174 -22 174 -5 0 -11 -17
-15 -37z m-8 -989 c-2 -344 -7 -529 -13 -531 -11 -3 -15 4 -52 78 -69 140 -96
279 -96 494 -1 234 43 416 119 492 23 23 28 24 35 10 5 -9 8 -248 7 -543z m84
-1981 c102 -110 155 -281 165 -538 6 -152 -10 -291 -46 -386 -24 -62 -83 -151
-118 -179 -53 -41 -53 -40 -53 556 0 298 3 549 6 558 9 22 16 20 46 -11z"/>
<path d="M13265 5434 c-22 -8 -85 -51 -140 -96 -55 -44 -113 -86 -130 -93 -16
-7 -73 -16 -125 -20 -227 -16 -453 -54 -630 -104 -41 -12 -99 -28 -128 -36
-29 -7 -58 -18 -65 -23 -7 -5 -27 -13 -45 -17 -18 -4 -45 -13 -60 -21 -15 -8
-31 -14 -35 -14 -8 0 -68 -26 -157 -68 -78 -37 -363 -203 -380 -222 -3 -3 -41
-32 -84 -63 -135 -98 -219 -187 -258 -274 -18 -40 -17 -55 4 -100 30 -62 190
-64 403 -5 303 84 641 293 801 493 46 58 56 78 61 121 6 48 4 53 -22 74 l-28
22 42 22 c24 12 78 27 121 35 43 8 96 18 117 24 46 12 215 17 232 7 9 -6 9
-11 1 -21 -15 -18 -180 -150 -840 -674 -129 -101 -137 -105 -430 -176 -106
-25 -185 -46 -235 -60 -27 -7 -88 -23 -135 -35 -77 -20 -163 -45 -245 -72 -16
-5 -52 -16 -78 -23 -26 -7 -53 -18 -60 -23 -7 -5 -28 -13 -47 -17 -19 -4 -44
-14 -55 -21 -11 -8 -26 -14 -35 -14 -8 -1 -33 -9 -55 -20 -22 -11 -44 -19 -48
-20 -9 0 -109 -44 -149 -66 -14 -8 -33 -14 -41 -14 -8 0 -20 -6 -26 -14 -7 -8
-24 -17 -39 -21 -15 -4 -34 -12 -42 -20 -8 -7 -26 -16 -39 -20 -39 -12 -341
-189 -427 -250 -43 -31 -90 -64 -103 -73 -92 -65 -315 -259 -402 -350 -183
-191 -242 -327 -190 -431 47 -92 169 -175 297 -201 67 -14 94 -26 94 -42 0
-15 -44 -54 -155 -138 -49 -38 -108 -85 -130 -105 -22 -21 -51 -44 -64 -53
-22 -15 -22 -16 -5 -29 43 -32 123 -6 219 72 33 27 62 51 65 55 3 3 61 48 129
100 l124 94 156 8 c235 12 416 43 721 124 52 14 111 30 131 34 19 5 49 16 65
25 16 8 36 15 44 15 15 0 95 30 166 62 22 10 43 18 47 18 4 0 42 16 84 36 137
64 355 195 461 277 185 143 272 248 280 340 3 46 1 55 -23 77 -24 23 -35 25
-136 28 -94 3 -125 0 -215 -23 -58 -15 -117 -33 -132 -41 -15 -8 -33 -14 -40
-14 -25 0 -247 -106 -335 -160 -91 -55 -300 -220 -349 -275 -52 -58 -78 -104
-78 -138 0 -29 33 -73 60 -82 19 -6 18 -8 -9 -31 -54 -45 -392 -119 -571 -126
-92 -3 -95 -2 -95 19 0 15 30 44 107 105 194 150 323 252 328 258 3 4 124 101
270 216 249 197 336 254 388 254 10 0 48 8 83 19 81 23 139 39 210 55 31 7 61
16 67 20 7 4 40 13 74 21 35 7 77 18 93 24 17 6 62 19 100 30 149 43 251 75
275 88 14 7 31 13 38 13 8 0 30 7 50 16 21 9 55 25 77 35 22 9 69 30 105 44
88 37 360 172 379 189 9 7 27 17 41 21 14 4 32 12 40 19 14 11 42 27 85 50 33
19 156 97 165 106 3 3 32 23 65 44 59 38 195 135 205 146 3 3 39 33 80 67 121
99 282 270 328 349 69 118 77 190 32 278 -48 92 -120 143 -249 175 -47 12 -88
26 -92 33 -7 10 52 64 159 146 17 13 32 33 32 43 0 15 -7 19 -37 18 -21 0 -56
-7 -78 -15z m-145 -254 c26 0 42 -5 49 -17 7 -13 26 -18 80 -21 60 -4 73 -8
83 -25 16 -31 34 -47 52 -47 10 0 16 -9 16 -25 0 -15 11 -36 25 -49 27 -25 29
-44 19 -163 -5 -59 -10 -72 -25 -76 -10 -3 -19 -12 -19 -20 0 -8 -9 -17 -20
-20 -11 -3 -20 -12 -20 -21 0 -9 -9 -25 -20 -36 -11 -11 -20 -29 -20 -40 0
-13 -7 -20 -20 -20 -11 0 -20 -7 -20 -15 0 -8 -7 -15 -16 -15 -9 0 -18 -9 -21
-20 -3 -11 -13 -20 -22 -20 -24 0 -61 -37 -61 -60 0 -13 -7 -20 -20 -20 -13 0
-20 -7 -20 -20 0 -13 -7 -20 -20 -20 -11 0 -20 -7 -20 -15 0 -8 -7 -15 -16
-15 -9 0 -18 -9 -21 -20 -4 -15 -14 -20 -40 -20 -26 0 -36 -5 -40 -20 -3 -11
-14 -20 -24 -20 -12 0 -19 -7 -19 -19 0 -13 -10 -21 -34 -25 -19 -4 -37 -13
-40 -21 -3 -8 -15 -15 -26 -15 -13 0 -20 -7 -20 -20 0 -13 -7 -20 -20 -20 -11
0 -20 -6 -20 -14 0 -9 -15 -17 -40 -21 -25 -4 -40 -12 -40 -21 0 -8 -9 -14
-20 -14 -10 0 -24 -9 -30 -20 -7 -13 -21 -20 -39 -20 -20 0 -30 -6 -34 -20 -4
-15 -14 -20 -37 -20 -23 0 -33 -5 -37 -20 -3 -13 -14 -20 -29 -20 -14 0 -24
-6 -24 -14 0 -16 -21 -26 -55 -26 -12 0 -25 -7 -29 -15 -3 -9 -18 -15 -34 -15
-16 0 -41 -9 -55 -20 -14 -11 -33 -20 -42 -20 -9 0 -19 -9 -22 -20 -4 -15 -14
-20 -40 -20 -26 0 -36 -5 -40 -20 -4 -16 -14 -20 -44 -20 -32 0 -39 -3 -39
-20 0 -16 -7 -20 -38 -20 -21 0 -46 -6 -57 -14 -11 -7 -38 -16 -60 -20 -22 -5
-43 -12 -46 -18 -4 -6 -28 -14 -54 -19 -27 -5 -56 -16 -65 -24 -10 -9 -36 -15
-62 -15 -32 0 -50 -6 -63 -20 -13 -15 -31 -20 -67 -20 -45 0 -53 -6 -49 -33 0
-4 -2 -6 -6 -6 -5 1 -39 1 -76 0 -60 -1 -70 -4 -74 -21 -5 -17 -14 -20 -64
-20 -43 0 -59 -4 -59 -14 0 -10 -21 -15 -75 -18 -50 -3 -81 -10 -93 -22 -12
-10 -36 -16 -64 -16 -30 0 -54 -7 -71 -20 -14 -11 -39 -20 -56 -20 -20 0 -35
-7 -43 -20 -7 -11 -21 -20 -30 -20 -9 0 -26 -9 -37 -21 l-19 -21 -7 21 c-9 30
-93 30 -120 1 -14 -16 -31 -20 -78 -20 -41 0 -66 -5 -78 -16 -10 -9 -36 -18
-59 -21 -23 -3 -44 -12 -47 -19 -3 -8 -18 -14 -33 -14 -39 0 -60 -9 -60 -26 0
-9 -12 -14 -36 -14 -27 0 -37 -5 -41 -20 -4 -15 -14 -20 -42 -20 -25 0 -40 -6
-49 -20 -8 -13 -23 -20 -42 -20 -17 0 -39 -9 -50 -20 -11 -11 -29 -20 -40 -20
-11 0 -20 -6 -20 -14 0 -8 -15 -17 -36 -20 -19 -4 -37 -13 -40 -21 -3 -7 -14
-15 -25 -18 -10 -3 -19 -12 -19 -21 0 -9 -8 -16 -20 -16 -13 0 -20 -7 -20 -20
0 -16 -7 -20 -36 -20 -27 0 -37 -5 -41 -20 -3 -11 -14 -20 -24 -20 -11 0 -19
-7 -19 -15 0 -9 -8 -19 -17 -22 -9 -4 -28 -20 -42 -36 -14 -16 -43 -46 -63
-67 -20 -20 -40 -50 -44 -66 -4 -16 -13 -35 -20 -42 -13 -13 -9 -42 7 -42 4 0
11 -16 15 -36 5 -26 14 -38 33 -45 14 -6 34 -18 44 -27 28 -25 134 -23 153 2
13 19 14 19 20 0 17 -47 33 -54 124 -54 60 0 92 4 106 15 10 8 37 15 58 15
l40 0 -22 -20 c-20 -19 -35 -20 -211 -20 -152 0 -192 -3 -204 -14 -13 -13 -17
-13 -33 -1 -11 8 -30 15 -44 15 -14 0 -31 9 -38 20 -10 17 -23 20 -87 20 -60
0 -75 3 -75 15 0 8 -6 15 -14 15 -8 0 -28 11 -44 25 -17 14 -37 25 -46 25 -9
0 -16 8 -16 18 0 20 -33 52 -55 52 -10 0 -15 10 -15 30 0 17 -6 39 -12 50 -10
16 -10 24 0 40 6 11 12 33 12 49 0 20 6 30 20 34 16 4 20 14 20 45 0 43 10 56
53 66 15 3 27 13 27 21 0 8 9 19 20 25 11 6 20 20 20 30 0 11 9 25 20 32 11 7
20 21 20 30 0 11 8 18 20 18 11 0 20 7 20 15 0 8 7 15 16 15 9 0 18 9 21 20 3
11 14 20 24 20 12 0 19 7 19 20 0 13 7 20 20 20 13 0 20 7 20 20 0 13 7 20 20
20 12 0 20 7 20 16 0 9 9 18 20 21 11 3 20 12 20 19 0 8 10 14 24 14 35 0 56
10 56 26 0 8 9 14 20 14 12 0 20 7 20 16 0 9 9 18 20 21 11 3 20 14 20 24 0
14 7 19 30 19 19 0 34 7 42 20 7 11 20 20 28 20 8 0 21 9 27 19 7 12 26 21 45
23 18 2 32 8 31 15 -1 6 15 14 37 18 25 4 40 12 40 21 0 8 9 14 20 14 10 0 24
9 30 20 6 11 17 20 24 20 7 0 21 9 31 20 10 11 31 20 47 20 16 0 36 9 45 20
10 11 30 20 46 20 15 0 30 6 33 14 3 8 23 17 45 21 22 4 39 12 39 20 0 7 17
15 39 19 21 3 41 13 45 21 3 9 18 15 36 15 19 0 34 7 42 20 9 14 24 20 50 20
31 0 38 4 38 20 0 18 7 20 56 20 47 0 57 3 61 20 4 16 14 20 53 20 31 0 52 5
60 15 7 9 20 15 29 14 30 -4 93 14 98 27 3 9 20 14 43 14 22 0 48 8 63 20 19
15 40 20 85 20 69 0 92 6 92 26 0 10 15 14 56 14 47 0 57 3 61 20 5 18 14 20
83 20 55 0 81 4 89 14 7 8 35 17 64 21 29 4 61 13 72 19 11 7 44 15 74 18 34
3 59 12 66 22 7 9 20 16 29 16 9 0 16 8 16 20 0 13 7 20 20 20 11 0 28 9 37
20 10 11 27 20 39 20 13 0 24 -8 27 -20 4 -17 14 -20 57 -20 43 0 53 3 57 20
4 17 14 20 54 20 38 0 52 4 61 20 9 14 24 20 50 20 26 0 38 4 38 14 0 9 15 17
40 21 25 4 40 12 40 21 0 9 12 14 36 14 27 0 37 5 41 19 3 12 17 21 39 26 19
3 38 13 41 21 3 8 19 14 40 14 26 0 36 5 40 20 3 11 14 20 24 20 11 0 28 9 39
20 11 11 29 20 40 20 11 0 20 7 20 15 0 8 7 15 15 15 8 0 19 9 25 20 6 11 17
20 24 20 8 0 16 9 19 20 3 12 14 20 25 20 31 0 52 11 52 26 0 8 9 14 20 14 13
0 20 7 20 20 0 13 7 20 20 20 13 0 20 7 20 19 0 11 11 33 25 48 45 51 49 56
66 90 9 18 13 36 8 39 -13 7 -11 48 2 61 8 8 4 15 -12 27 -17 12 -47 16 -111
16 -81 0 -88 -2 -88 -20 0 -14 -6 -20 -22 -19 -17 1 -19 2 -5 6 12 3 17 15 17
39 l0 34 -75 0 c-73 0 -75 1 -63 20 12 18 24 20 155 20 132 0 142 1 148 19 6
20 6 20 26 0 12 -12 33 -19 59 -19z m-920 -124 c0 -18 -15 -36 -31 -36 -12 0
-19 -7 -19 -19 0 -10 -7 -22 -16 -25 -9 -3 -14 -15 -12 -28 2 -17 13 -25 41
-32 32 -8 37 -13 33 -30 -3 -12 -6 -36 -6 -54 0 -25 -5 -35 -20 -39 -11 -3
-20 -14 -20 -24 0 -11 -7 -19 -15 -19 -8 0 -15 -5 -15 -10 0 -6 -11 -15 -25
-20 -14 -5 -25 -16 -25 -25 0 -8 -7 -15 -16 -15 -9 0 -18 -9 -21 -20 -3 -11
-11 -20 -19 -20 -7 0 -18 -9 -24 -20 -6 -11 -17 -20 -25 -20 -8 0 -15 -7 -15
-15 0 -8 -8 -15 -18 -15 -9 0 -23 -9 -30 -20 -7 -11 -23 -20 -36 -20 -12 0
-31 -9 -41 -20 -10 -11 -29 -20 -42 -20 -16 0 -27 -7 -30 -20 -3 -11 -14 -20
-24 -20 -12 0 -19 -7 -19 -20 0 -16 -7 -20 -38 -20 -21 0 -47 -6 -58 -14 -11
-8 -37 -18 -58 -21 -21 -4 -40 -14 -43 -21 -3 -9 -21 -14 -48 -14 -47 0 -105
-17 -105 -31 0 -5 -49 -9 -109 -9 -88 0 -110 3 -115 15 -3 8 -13 15 -21 15
-14 0 -13 4 4 26 13 16 21 41 21 64 0 29 4 39 20 43 15 4 20 14 20 36 0 29 2
31 36 31 27 0 37 5 41 20 3 11 14 20 24 20 12 0 19 7 19 20 0 13 7 20 20 20
11 0 20 7 20 15 0 8 6 15 14 15 8 0 21 8 28 18 7 10 21 21 31 25 9 3 17 13 17
22 0 10 10 15 34 15 25 0 35 5 39 20 4 15 14 20 37 20 23 0 33 5 37 20 3 11
13 20 22 20 9 0 24 9 34 20 9 11 26 20 37 20 11 0 23 7 26 15 4 8 15 15 26 15
11 0 22 8 25 20 4 16 14 20 49 20 32 0 49 6 61 20 11 12 30 20 50 20 23 0 33
5 38 20 5 15 15 20 45 20 48 0 70 8 70 26 0 10 13 14 45 14 33 0 45 4 45 15 0
9 9 15 25 15 14 0 25 -2 25 -4z m784 -67 c-3 -62 -20 -92 -101 -171 -97 -95
-163 -145 -313 -235 -53 -33 -228 -117 -334 -162 -49 -21 -110 -28 -104 -12 3
10 88 78 463 376 138 109 266 211 285 227 26 21 44 27 70 25 35 -2 35 -2 34
-48z m-1314 -1658 c0 -30 -5 -51 -12 -54 -10 -4 -10 -7 0 -18 16 -18 15 -29
-3 -29 -9 0 -18 -7 -22 -16 -9 -24 -52 -64 -68 -64 -8 0 -15 -9 -15 -20 0 -13
-7 -20 -20 -20 -13 0 -20 -7 -20 -20 0 -11 -7 -20 -14 -20 -18 0 -66 -43 -66
-59 0 -6 -9 -11 -20 -11 -13 0 -20 -7 -20 -20 0 -16 -7 -20 -36 -20 -27 0 -37
-5 -41 -20 -3 -11 -13 -20 -22 -20 -9 0 -23 -9 -31 -20 -8 -12 -26 -20 -42
-20 -18 0 -28 -5 -28 -15 0 -8 -9 -15 -19 -15 -11 0 -23 -9 -26 -20 -5 -14
-15 -20 -37 -20 -20 0 -31 -6 -35 -18 -3 -13 -15 -19 -41 -20 -20 -2 -49 -11
-64 -22 -15 -11 -36 -20 -46 -20 -11 0 -31 -9 -45 -20 -14 -11 -39 -20 -56
-20 -20 0 -31 -5 -31 -14 0 -10 -17 -17 -56 -22 -33 -4 -58 -12 -61 -20 -3 -8
-18 -14 -33 -14 -39 0 -60 -9 -60 -26 0 -10 -13 -14 -46 -14 -38 0 -45 3 -42
18 2 12 15 18 46 20 34 3 42 7 42 23 0 12 7 19 20 19 31 0 27 61 -6 97 -20 21
-24 34 -20 57 3 15 6 46 6 67 0 31 4 39 18 39 9 0 22 8 29 19 6 10 25 21 42
24 17 4 31 13 31 21 0 7 9 16 20 19 11 3 20 12 20 21 0 9 8 16 20 16 13 0 20
7 20 20 0 13 7 20 20 20 11 0 20 7 20 15 0 8 7 15 15 15 8 0 19 9 25 20 7 13
21 20 39 20 15 0 36 9 46 20 10 11 29 20 42 20 16 0 27 7 30 20 4 15 14 20 40
20 26 0 36 5 40 20 3 11 13 20 23 20 9 0 29 9 43 20 14 12 40 20 61 20 24 0
36 5 36 14 0 9 17 15 56 18 33 3 62 11 72 21 13 14 39 17 149 17 l133 0 0 -49z
m-1140 -51 c18 -11 45 13 -255 -225 -137 -109 -313 -249 -391 -311 -193 -154
-227 -176 -259 -168 -44 11 -85 57 -85 97 0 90 177 256 424 396 59 33 110 61
112 61 3 0 31 12 62 26 101 46 120 54 129 54 4 0 21 7 37 15 16 9 46 20 65 25
20 5 54 15 76 24 47 18 65 19 85 6z"/>
<path d="M3480 5401 c0 -10 15 -30 33 -43 108 -84 165 -136 158 -147 -4 -6
-47 -21 -95 -32 -102 -25 -164 -62 -217 -133 -75 -99 -74 -187 2 -319 47 -80
195 -238 324 -345 44 -37 82 -69 85 -72 10 -11 148 -109 233 -166 167 -111
189 -125 284 -175 37 -20 91 -50 119 -66 93 -56 392 -193 549 -253 33 -13 74
-29 92 -36 17 -8 37 -14 44 -14 8 0 36 -9 64 -19 27 -10 70 -24 95 -31 25 -6
68 -18 95 -25 351 -100 399 -113 557 -150 35 -8 81 -22 103 -32 22 -10 156
-110 298 -223 143 -113 307 -243 365 -289 59 -45 123 -97 144 -115 20 -17 75
-60 122 -96 79 -60 101 -90 76 -105 -16 -10 -249 15 -336 36 -45 10 -89 19
-97 19 -38 0 -204 55 -229 76 -26 21 -27 23 -8 29 27 9 60 53 60 82 0 62 -108
186 -260 297 -41 30 -80 59 -86 64 -6 6 -24 17 -40 26 -16 9 -42 25 -59 36
-61 39 -296 150 -319 150 -6 0 -24 7 -40 15 -26 14 -66 25 -194 56 -23 6 -92
9 -152 7 -100 -3 -111 -5 -135 -28 -24 -22 -26 -31 -23 -77 13 -155 292 -392
705 -597 73 -36 138 -66 146 -66 7 0 17 -4 23 -9 9 -9 97 -43 164 -62 19 -6
49 -17 67 -25 17 -8 37 -14 45 -14 7 0 42 -9 78 -19 257 -78 528 -127 771
-139 l156 -8 124 -94 c68 -52 149 -116 179 -142 95 -84 189 -118 234 -85 17
13 17 14 -5 29 -13 9 -42 32 -64 53 -22 20 -80 67 -130 105 -147 111 -172 138
-145 155 5 3 43 14 84 25 146 37 248 107 297 201 58 115 -20 268 -247 489
-130 126 -226 204 -479 388 -54 39 -365 218 -396 227 -13 4 -31 13 -39 20 -8
8 -27 16 -42 20 -15 4 -32 13 -39 21 -6 8 -17 14 -25 14 -7 0 -51 18 -98 40
-47 22 -91 40 -98 40 -8 0 -23 7 -34 15 -10 8 -26 15 -34 15 -9 0 -33 9 -54
19 -21 11 -51 23 -68 26 -16 4 -41 13 -56 21 -15 8 -33 14 -40 14 -7 0 -34 8
-60 19 -26 10 -65 23 -87 29 -22 6 -71 20 -110 32 -38 12 -97 27 -130 34 -33
7 -76 18 -95 24 -33 11 -90 26 -220 58 -173 41 -308 80 -323 92 -104 81 -681
538 -819 650 -134 107 -144 117 -128 127 19 12 184 5 241 -9 30 -8 79 -17 109
-21 30 -4 80 -18 110 -32 l55 -24 -27 -21 c-35 -24 -37 -72 -8 -133 24 -49
140 -178 200 -220 23 -16 63 -46 88 -66 47 -36 226 -140 292 -170 19 -9 53
-24 75 -34 198 -90 478 -136 561 -92 68 36 63 108 -15 211 -56 74 -108 123
-200 188 -36 26 -75 54 -86 62 -51 39 -76 56 -163 107 -151 87 -310 167 -381
190 -56 18 -127 45 -148 57 -12 7 -28 12 -35 12 -7 0 -42 9 -78 20 -236 71
-379 98 -655 120 -77 7 -153 18 -170 25 -16 7 -75 49 -130 93 -101 82 -160
112 -222 112 -26 0 -33 -4 -33 -19z m504 -423 c57 -45 508 -403 636 -506 58
-46 107 -88 108 -93 6 -16 -55 -9 -104 12 -208 89 -319 147 -451 235 -91 60
-256 211 -278 254 -17 33 -29 96 -21 115 10 26 64 18 110 -17z m2458 -1744
c15 -8 35 -14 45 -14 10 -1 36 -9 58 -20 22 -11 46 -19 53 -20 8 0 26 -6 40
-14 27 -14 94 -45 142 -65 14 -6 32 -15 40 -21 8 -5 53 -30 100 -56 87 -48
276 -187 318 -233 46 -50 82 -115 82 -147 0 -68 -84 -121 -139 -86 -38 25
-128 95 -502 392 -183 146 -340 271 -349 277 -13 11 -13 14 0 23 18 12 73 4
112 -16z"/>
</g>
</svg>
