<?xml version="1.0" standalone="no"?>
<!DOCTYPE svg PUBLIC "-//W3C//DTD SVG 1.0//EN" "http://www.w3.org/TR/2001/REC-SVG-20010904/DTD/svg10.dtd">
<svg xmlns="http://www.w3.org/2000/svg" xmlns:xlink="http://www.w3.org/1999/xlink" id="body_1" width="410" height="256">

<g transform="matrix(0.2666667 0 0 0.2666667 0.40000004 -0)">
	<g transform="matrix(0.1 0 -0 -0.1 0 960)">
        <path d="M7886 8024C 7769 7960 7748 7953 7605 7930C 7458 7906 7204 7835 6975 7753C 6489 7580 5875 7248 5596 7007C 5458 6888 5438 6848 5458 6736C 5467 6689 5467 6673 5457 6663C 5445 6651 5197 6509 4675 6215C 4376 6046 4375 6046 4305 6042C 4221 6038 4183 6050 4169 6087C 4160 6112 4162 6118 4189 6142C 4207 6158 4250 6178 4292 6190C 4332 6201 4397 6220 4435 6231C 4657 6297 5018 6494 5115 6601C 5145 6635 5149 6643 5139 6662C 5129 6681 5122 6682 5068 6676C 4805 6649 4168 6325 4038 6153C 4009 6115 4003 6073 4021 6038C 4037 6008 4091 5990 4165 5990C 4201 5990 4230 5986 4230 5981C 4230 5965 4173 5927 4047 5859C 3932 5797 3864 5751 3885 5750C 3891 5750 3968 5791 4055 5841C 4301 5981 4313 5986 4446 6010C 4927 6095 5402 6269 5915 6547C 6239 6723 6413 6836 6537 6954C 6659 7069 6679 7120 6644 7223C 6624 7281 6628 7286 6719 7340C 6858 7421 7602 7841 7652 7866C 7694 7887 7717 7892 7772 7892C 7851 7891 7883 7878 7878 7847C 7874 7819 7831 7796 7736 7770C 7482 7702 7080 7501 6958 7380C 6904 7327 6898 7303 6936 7294C 7083 7257 7728 7556 7946 7762C 8060 7869 8040 7925 7883 7945C 7854 7949 7830 7956 7830 7960C 7830 7964 7867 7990 7913 8016C 8024 8081 8038 8090 8020 8090C 8012 8090 7951 8060 7886 8024zM7566 7851C 7562 7846 7518 7818 7467 7789C 7416 7761 7222 7651 7035 7544C 6646 7324 6602 7305 6663 7386C 6762 7519 7171 7748 7475 7840C 7566 7868 7577 7870 7566 7851zM7180 7765C 7173 7757 7162 7750 7156 7750C 7143 7750 6991 7673 6970 7656C 6962 7649 6943 7639 6928 7632C 6912 7626 6900 7616 6900 7611C 6900 7606 6888 7599 6874 7596C 6860 7592 6835 7580 6819 7570C 6803 7559 6777 7541 6760 7530C 6744 7519 6728 7510 6725 7510C 6714 7510 6628 7439 6583 7393C 6559 7369 6540 7341 6540 7330C 6540 7319 6536 7310 6531 7310C 6519 7310 6520 7226 6533 7219C 6547 7209 6550 7051 6536 7042C 6530 7038 6516 7022 6505 7005C 6489 6979 6422 6911 6363 6860C 6336 6837 6260 6790 6250 6790C 6244 6790 6240 6787 6240 6783C 6240 6778 6230 6770 6217 6764C 6205 6758 6150 6727 6095 6695C 5796 6520 5723 6481 5590 6422C 5565 6411 5516 6389 5480 6372C 5362 6318 5272 6280 5263 6280C 5258 6280 5235 6271 5212 6260C 5190 6249 5163 6240 5153 6240C 5143 6240 5126 6234 5115 6226C 5104 6219 5078 6210 5058 6206C 5037 6202 5020 6195 5020 6190C 5020 6184 5016 6180 5010 6180C 4986 6180 5004 6199 5053 6223C 5109 6252 5180 6292 5220 6318C 5264 6346 5324 6380 5343 6386C 5352 6390 5360 6396 5360 6400C 5360 6405 5390 6427 5428 6451C 5552 6529 5613 6617 5583 6675C 5575 6690 5567 6716 5565 6734C 5564 6751 5561 6770 5560 6775C 5559 6781 5558 6811 5559 6842C 5560 6896 5562 6900 5610 6947C 5715 7049 5844 7155 5894 7181C 5953 7211 5969 7220 6041 7266C 6121 7318 6186 7356 6227 7375C 6244 7383 6261 7394 6265 7400C 6268 7405 6289 7414 6311 7420C 6333 7426 6354 7438 6357 7446C 6360 7453 6370 7460 6379 7460C 6388 7460 6409 7469 6425 7480C 6456 7501 6534 7540 6545 7540C 6552 7540 6574 7549 6670 7593C 6701 7607 6738 7622 6753 7625C 6768 7629 6783 7636 6786 7641C 6789 7646 6798 7650 6805 7650C 6813 7650 6844 7661 6874 7675C 6904 7689 6932 7700 6937 7700C 6941 7700 6972 7711 7005 7725C 7038 7738 7076 7750 7091 7750C 7105 7750 7120 7754 7126 7759C 7134 7767 7159 7776 7184 7779C 7189 7779 7187 7773 7180 7765zM7880 7774C 7880 7766 7874 7760 7769 7681C 7723 7646 7683 7614 7680 7610C 7677 7605 7662 7598 7647 7595C 7632 7591 7617 7584 7614 7579C 7611 7574 7576 7554 7537 7535C 7497 7516 7458 7496 7450 7491C 7442 7486 7413 7472 7385 7460C 7358 7449 7317 7430 7295 7420C 7273 7409 7233 7395 7205 7389C 7178 7382 7150 7373 7144 7368C 7137 7363 7109 7357 7081 7353C 7039 7348 7030 7350 7030 7363C 7030 7378 7129 7470 7145 7470C 7150 7470 7161 7476 7169 7484C 7178 7492 7237 7524 7300 7555C 7462 7634 7490 7647 7535 7661C 7557 7667 7584 7679 7595 7686C 7606 7694 7626 7700 7640 7700C 7654 7700 7678 7707 7694 7715C 7709 7723 7735 7730 7750 7730C 7765 7730 7797 7741 7821 7754C 7868 7780 7880 7784 7880 7774zM5035 6610C 5038 6605 5036 6600 5031 6600C 5025 6600 5020 6595 5020 6588C 5020 6574 4980 6530 4968 6530C 4959 6530 4892 6483 4880 6469C 4877 6466 4860 6458 4843 6452C 4825 6446 4783 6425 4750 6406C 4716 6386 4686 6370 4683 6370C 4680 6370 4652 6358 4621 6343C 4543 6307 4537 6304 4430 6270C 4378 6254 4324 6240 4310 6240C 4296 6239 4267 6231 4245 6220C 4223 6209 4199 6201 4193 6200C 4186 6200 4180 6196 4180 6192C 4180 6187 4169 6178 4155 6172C 4048 6123 4286 6313 4429 6391C 4449 6401 4472 6414 4480 6419C 4514 6440 4713 6530 4770 6550C 4789 6557 4819 6569 4837 6576C 4854 6584 4874 6590 4882 6590C 4889 6591 4906 6597 4920 6605C 4949 6621 5026 6625 5035 6610zM5480 6596C 5480 6522 5252 6359 4947 6215C 4834 6162 4582 6076 4505 6065L4505 6065L4465 6059L4492 6081C 4507 6093 4646 6175 4802 6263C 4958 6351 5164 6467 5260 6521C 5443 6625 5480 6638 5480 6596z" stroke="none" fill="#000000" fill-rule="nonzero" />
        <path d="M8670 8069C 8678 8064 8723 8039 8771 8015C 8890 7954 8896 7944 8818 7937C 8735 7929 8696 7914 8680 7885C 8644 7818 8791 7703 9135 7530C 9308 7442 9457 7382 9608 7339C 9708 7310 9829 7296 9845 7312C 9849 7316 9850 7330 9846 7344C 9837 7381 9723 7457 9540 7549C 9315 7663 9152 7724 8925 7780C 8868 7794 8818 7827 8822 7848C 8829 7885 8953 7902 9026 7876C 9080 7857 10077 7345 10131 7309L10131 7309L10155 7293L10137 7238C 10105 7135 10115 7106 10217 7009C 10349 6885 10523 6778 10885 6600C 11366 6363 11681 6246 12135 6133C 12250 6105 12540 6050 12576 6050C 12589 6050 12703 5998 12830 5934C 12957 5871 13066 5820 13073 5823C 13080 5825 13036 5852 12975 5883C 12782 5981 12716 6017 12713 6027C 12711 6033 12743 6039 12790 6043C 12973 6055 13001 6145 12856 6259C 12628 6438 12056 6687 11828 6707C 11655 6722 11735 6624 12020 6472C 12202 6375 12451 6282 12620 6245C 12757 6216 12813 6163 12759 6115C 12742 6098 12723 6095 12651 6095L12651 6095L12565 6095L12370 6194C 12263 6248 12135 6314 12085 6340C 12036 6366 11866 6453 11709 6534C 11551 6615 11415 6689 11407 6698C 11394 6712 11393 6723 11401 6760C 11425 6863 11401 6914 11280 7010C 11126 7133 10932 7250 10630 7401C 10249 7590 9977 7698 9612 7804C 9329 7886 9190 7917 9025 7935C 8980 7940 8930 7959 8823 8011C 8695 8073 8627 8099 8670 8069zM9265 7834C 9473 7774 9794 7629 9970 7516C 10051 7465 10140 7384 10140 7363C 10140 7333 10148 7329 9420 7704C 9274 7780 9151 7845 9146 7850C 9129 7867 9172 7861 9265 7834zM11555 6588C 11621 6555 11743 6493 11825 6450C 11908 6407 12077 6320 12201 6256C 12432 6138 12484 6104 12419 6116C 12217 6153 11982 6237 11739 6361C 11503 6481 11380 6575 11380 6636C 11380 6659 11383 6661 11408 6656C 11423 6652 11489 6622 11555 6588z" stroke="none" fill="#000000" fill-rule="nonzero" />
        <path d="M8446 6613C 8443 6592 8440 6526 8440 6465C 8440 6405 8436 6350 8432 6345C 8428 6339 8399 6322 8367 6306C 8335 6291 8296 6267 8280 6254C 8249 6227 8150 6107 8150 6095C 8150 6091 8141 6075 8130 6060C 8074 5981 8008 5811 7976 5662C 7907 5346 7910 4898 7981 4560C 8032 4318 8090 4170 8174 4063C 8196 4035 8230 3990 8249 3965C 8268 3940 8303 3898 8327 3872C 8352 3846 8385 3807 8401 3786L8401 3786L8430 3747L8430 3129C 8430 2581 8428 2510 8414 2496C 8367 2448 8221 2523 8145 2634C 8097 2704 8096 2763 8141 2806C 8186 2847 8213 2895 8241 2975C 8264 3041 8265 3058 8265 3265C 8264 3457 8261 3494 8243 3560C 8195 3733 8108 3810 8024 3755C 7941 3701 7880 3474 7880 3224C 7880 2923 7942 2708 8074 2548C 8161 2443 8238 2397 8348 2384C 8393 2379 8413 2372 8420 2359C 8426 2349 8430 2248 8430 2133C 8430 1931 8436 1890 8459 1904C 8467 1909 8470 1984 8470 2143C 8470 2271 8474 2380 8478 2386C 8482 2392 8512 2410 8544 2426C 8623 2464 8752 2592 8814 2693C 8908 2844 8951 2982 8992 3265C 9001 3325 9005 3461 9005 3675C 9004 3941 9001 4010 8986 4085C 8934 4346 8867 4527 8772 4665C 8751 4695 8679 4780 8613 4854L8613 4854L8492 4988L8485 5052C 8482 5086 8480 5362 8482 5663C 8485 6136 8487 6212 8500 6221C 8526 6238 8602 6220 8650 6185C 8713 6139 8730 6117 8740 6074C 8750 6029 8740 6001 8701 5964C 8579 5850 8549 5319 8653 5113C 8725 4973 8832 4974 8895 5116C 8939 5212 8960 5344 8960 5518C 8960 5768 8932 5920 8859 6076C 8795 6211 8676 6310 8558 6326C 8533 6330 8507 6336 8500 6340C 8492 6345 8486 6390 8483 6476C 8478 6616 8474 6650 8461 6650C 8456 6650 8450 6633 8446 6613zM8438 5624C 8436 5280 8431 5095 8425 5093C 8414 5090 8410 5097 8373 5171C 8304 5311 8277 5450 8277 5665C 8276 5899 8320 6081 8396 6157C 8419 6180 8424 6181 8431 6167C 8436 6158 8439 5919 8438 5624zM8522 3643C 8624 3533 8677 3362 8687 3105C 8693 2953 8677 2814 8641 2719C 8617 2657 8558 2568 8523 2540C 8470 2499 8470 2500 8470 3096C 8470 3394 8473 3645 8476 3654C 8485 3676 8492 3674 8522 3643z" stroke="none" fill="#000000" fill-rule="nonzero" />
        <path d="M13265 5434C 13243 5426 13180 5383 13125 5338C 13070 5294 13012 5252 12995 5245C 12979 5238 12922 5229 12870 5225C 12643 5209 12417 5171 12240 5121C 12199 5109 12141 5093 12112 5085C 12083 5078 12054 5067 12047 5062C 12040 5057 12020 5049 12002 5045C 11984 5041 11957 5032 11942 5024C 11927 5016 11911 5010 11907 5010C 11899 5010 11839 4984 11750 4942C 11672 4905 11387 4739 11370 4720C 11367 4717 11329 4688 11286 4657C 11151 4559 11067 4470 11028 4383C 11010 4343 11011 4328 11032 4283C 11062 4221 11222 4219 11435 4278C 11738 4362 12076 4571 12236 4771C 12282 4829 12292 4849 12297 4892C 12303 4940 12301 4945 12275 4966L12275 4966L12247 4988L12289 5010C 12313 5022 12367 5037 12410 5045C 12453 5053 12506 5063 12527 5069C 12573 5081 12742 5086 12759 5076C 12768 5070 12768 5065 12760 5055C 12745 5037 12580 4905 11920 4381C 11791 4280 11783 4276 11490 4205C 11384 4180 11305 4159 11255 4145C 11228 4138 11167 4122 11120 4110C 11043 4090 10957 4065 10875 4038C 10859 4033 10823 4022 10797 4015C 10771 4008 10744 3997 10737 3992C 10730 3987 10709 3979 10690 3975C 10671 3971 10646 3961 10635 3954C 10624 3946 10609 3940 10600 3940C 10592 3939 10567 3931 10545 3920C 10523 3909 10501 3901 10497 3900C 10488 3900 10388 3856 10348 3834C 10334 3826 10315 3820 10307 3820C 10299 3820 10287 3814 10281 3806C 10274 3798 10257 3789 10242 3785C 10227 3781 10208 3773 10200 3765C 10192 3758 10174 3749 10161 3745C 10122 3733 9820 3556 9734 3495C 9691 3464 9644 3431 9631 3422C 9539 3357 9316 3163 9229 3072C 9046 2881 8987 2745 9039 2641C 9086 2549 9208 2466 9336 2440C 9403 2426 9430 2414 9430 2398C 9430 2383 9386 2344 9275 2260C 9226 2222 9167 2175 9145 2155C 9123 2134 9094 2111 9081 2102C 9059 2087 9059 2086 9076 2073C 9119 2041 9199 2067 9295 2145C 9328 2172 9357 2196 9360 2200C 9363 2203 9421 2248 9489 2300L9489 2300L9613 2394L9769 2402C 10004 2414 10185 2445 10490 2526C 10542 2540 10601 2556 10621 2560C 10640 2565 10670 2576 10686 2585C 10702 2593 10722 2600 10730 2600C 10745 2600 10825 2630 10896 2662C 10918 2672 10939 2680 10943 2680C 10947 2680 10985 2696 11027 2716C 11164 2780 11382 2911 11488 2993C 11673 3136 11760 3241 11768 3333C 11771 3379 11769 3388 11745 3410C 11721 3433 11710 3435 11609 3438C 11515 3441 11484 3438 11394 3415C 11336 3400 11277 3382 11262 3374C 11247 3366 11229 3360 11222 3360C 11197 3360 10975 3254 10887 3200C 10796 3145 10587 2980 10538 2925C 10486 2867 10460 2821 10460 2787C 10460 2758 10493 2714 10520 2705C 10539 2699 10538 2697 10511 2674C 10457 2629 10119 2555 9940 2548C 9848 2545 9845 2546 9845 2567C 9845 2582 9875 2611 9952 2672C 10146 2822 10275 2924 10280 2930C 10283 2934 10404 3031 10550 3146C 10799 3343 10886 3400 10938 3400C 10948 3400 10986 3408 11021 3419C 11102 3442 11160 3458 11231 3474C 11262 3481 11292 3490 11298 3494C 11305 3498 11338 3507 11372 3515C 11407 3522 11449 3533 11465 3539C 11482 3545 11527 3558 11565 3569C 11714 3612 11816 3644 11840 3657C 11854 3664 11871 3670 11878 3670C 11886 3670 11908 3677 11928 3686C 11949 3695 11983 3711 12005 3721C 12027 3730 12074 3751 12110 3765C 12198 3802 12470 3937 12489 3954C 12498 3961 12516 3971 12530 3975C 12544 3979 12562 3987 12570 3994C 12584 4005 12612 4021 12655 4044C 12688 4063 12811 4141 12820 4150C 12823 4153 12852 4173 12885 4194C 12944 4232 13080 4329 13090 4340C 13093 4343 13129 4373 13170 4407C 13291 4506 13452 4677 13498 4756C 13567 4874 13575 4946 13530 5034C 13482 5126 13410 5177 13281 5209C 13234 5221 13193 5235 13189 5242C 13182 5252 13241 5306 13348 5388C 13365 5401 13380 5421 13380 5431C 13380 5446 13373 5450 13343 5449C 13322 5449 13287 5442 13265 5434zM13120 5180C 13146 5180 13162 5175 13169 5163C 13176 5150 13195 5145 13249 5142C 13309 5138 13322 5134 13332 5117C 13348 5086 13366 5070 13384 5070C 13394 5070 13400 5061 13400 5045C 13400 5030 13411 5009 13425 4996C 13452 4971 13454 4952 13444 4833C 13439 4774 13434 4761 13419 4757C 13409 4754 13400 4745 13400 4737C 13400 4729 13391 4720 13380 4717C 13369 4714 13360 4705 13360 4696C 13360 4687 13351 4671 13340 4660C 13329 4649 13320 4631 13320 4620C 13320 4607 13313 4600 13300 4600C 13289 4600 13280 4593 13280 4585C 13280 4577 13273 4570 13264 4570C 13255 4570 13246 4561 13243 4550C 13240 4539 13230 4530 13221 4530C 13197 4530 13160 4493 13160 4470C 13160 4457 13153 4450 13140 4450C 13127 4450 13120 4443 13120 4430C 13120 4417 13113 4410 13100 4410C 13089 4410 13080 4403 13080 4395C 13080 4387 13073 4380 13064 4380C 13055 4380 13046 4371 13043 4360C 13039 4345 13029 4340 13003 4340C 12977 4340 12967 4335 12963 4320C 12960 4309 12949 4300 12939 4300C 12927 4300 12920 4293 12920 4281C 12920 4268 12910 4260 12886 4256C 12867 4252 12849 4243 12846 4235C 12843 4227 12831 4220 12820 4220C 12807 4220 12800 4213 12800 4200C 12800 4187 12793 4180 12780 4180C 12769 4180 12760 4174 12760 4166C 12760 4157 12745 4149 12720 4145C 12695 4141 12680 4133 12680 4124C 12680 4116 12671 4110 12660 4110C 12650 4110 12636 4101 12630 4090C 12623 4077 12609 4070 12591 4070C 12571 4070 12561 4064 12557 4050C 12553 4035 12543 4030 12520 4030C 12497 4030 12487 4025 12483 4010C 12480 3997 12469 3990 12454 3990C 12440 3990 12430 3984 12430 3976C 12430 3960 12409 3950 12375 3950C 12363 3950 12350 3943 12346 3935C 12343 3926 12328 3920 12312 3920C 12296 3920 12271 3911 12257 3900C 12243 3889 12224 3880 12215 3880C 12206 3880 12196 3871 12193 3860C 12189 3845 12179 3840 12153 3840C 12127 3840 12117 3835 12113 3820C 12109 3804 12099 3800 12069 3800C 12037 3800 12030 3797 12030 3780C 12030 3764 12023 3760 11992 3760C 11971 3760 11946 3754 11935 3746C 11924 3739 11897 3730 11875 3726C 11853 3721 11832 3714 11829 3708C 11825 3702 11801 3694 11775 3689C 11748 3684 11719 3673 11710 3665C 11700 3656 11674 3650 11648 3650C 11616 3650 11598 3644 11585 3630C 11572 3615 11554 3610 11518 3610C 11473 3610 11465 3604 11469 3577C 11469 3573 11467 3571 11463 3571C 11458 3572 11424 3572 11387 3571C 11327 3570 11317 3567 11313 3550C 11308 3533 11299 3530 11249 3530C 11206 3530 11190 3526 11190 3516C 11190 3506 11169 3501 11115 3498C 11065 3495 11034 3488 11022 3476C 11010 3466 10986 3460 10958 3460C 10928 3460 10904 3453 10887 3440C 10873 3429 10848 3420 10831 3420C 10811 3420 10796 3413 10788 3400C 10781 3389 10767 3380 10758 3380C 10749 3380 10732 3371 10721 3359L10721 3359L10702 3338L10695 3359C 10686 3389 10602 3389 10575 3360C 10561 3344 10544 3340 10497 3340C 10456 3340 10431 3335 10419 3324C 10409 3315 10383 3306 10360 3303C 10337 3300 10316 3291 10313 3284C 10310 3276 10295 3270 10280 3270C 10241 3270 10220 3261 10220 3244C 10220 3235 10208 3230 10184 3230C 10157 3230 10147 3225 10143 3210C 10139 3195 10129 3190 10101 3190C 10076 3190 10061 3184 10052 3170C 10044 3157 10029 3150 10010 3150C 9993 3150 9971 3141 9960 3130C 9949 3119 9931 3110 9920 3110C 9909 3110 9900 3104 9900 3096C 9900 3088 9885 3079 9864 3076C 9845 3072 9827 3063 9824 3055C 9821 3048 9810 3040 9799 3037C 9789 3034 9780 3025 9780 3016C 9780 3007 9772 3000 9760 3000C 9747 3000 9740 2993 9740 2980C 9740 2964 9733 2960 9704 2960C 9677 2960 9667 2955 9663 2940C 9660 2929 9649 2920 9639 2920C 9628 2920 9620 2913 9620 2905C 9620 2896 9612 2886 9603 2883C 9594 2879 9575 2863 9561 2847C 9547 2831 9518 2801 9498 2780C 9478 2760 9458 2730 9454 2714C 9450 2698 9441 2679 9434 2672C 9421 2659 9425 2630 9441 2630C 9445 2630 9452 2614 9456 2594C 9461 2568 9470 2556 9489 2549C 9503 2543 9523 2531 9533 2522C 9561 2497 9667 2499 9686 2524C 9699 2543 9700 2543 9706 2524C 9723 2477 9739 2470 9830 2470C 9890 2470 9922 2474 9936 2485C 9946 2493 9973 2500 9994 2500L9994 2500L10034 2500L10012 2480C 9992 2461 9977 2460 9801 2460C 9649 2460 9609 2457 9597 2446C 9584 2433 9580 2433 9564 2445C 9553 2453 9534 2460 9520 2460C 9506 2460 9489 2469 9482 2480C 9472 2497 9459 2500 9395 2500C 9335 2500 9320 2503 9320 2515C 9320 2523 9314 2530 9306 2530C 9298 2530 9278 2541 9262 2555C 9245 2569 9225 2580 9216 2580C 9207 2580 9200 2588 9200 2598C 9200 2618 9167 2650 9145 2650C 9135 2650 9130 2660 9130 2680C 9130 2697 9124 2719 9118 2730C 9108 2746 9108 2754 9118 2770C 9124 2781 9130 2803 9130 2819C 9130 2839 9136 2849 9150 2853C 9166 2857 9170 2867 9170 2898C 9170 2941 9180 2954 9223 2964C 9238 2967 9250 2977 9250 2985C 9250 2993 9259 3004 9270 3010C 9281 3016 9290 3030 9290 3040C 9290 3051 9299 3065 9310 3072C 9321 3079 9330 3093 9330 3102C 9330 3113 9338 3120 9350 3120C 9361 3120 9370 3127 9370 3135C 9370 3143 9377 3150 9386 3150C 9395 3150 9404 3159 9407 3170C 9410 3181 9421 3190 9431 3190C 9443 3190 9450 3197 9450 3210C 9450 3223 9457 3230 9470 3230C 9483 3230 9490 3237 9490 3250C 9490 3263 9497 3270 9510 3270C 9522 3270 9530 3277 9530 3286C 9530 3295 9539 3304 9550 3307C 9561 3310 9570 3319 9570 3326C 9570 3334 9580 3340 9594 3340C 9629 3340 9650 3350 9650 3366C 9650 3374 9659 3380 9670 3380C 9682 3380 9690 3387 9690 3396C 9690 3405 9699 3414 9710 3417C 9721 3420 9730 3431 9730 3441C 9730 3455 9737 3460 9760 3460C 9779 3460 9794 3467 9802 3480C 9809 3491 9822 3500 9830 3500C 9838 3500 9851 3509 9857 3519C 9864 3531 9883 3540 9902 3542C 9920 3544 9934 3550 9933 3557C 9932 3563 9948 3571 9970 3575C 9995 3579 10010 3587 10010 3596C 10010 3604 10019 3610 10030 3610C 10040 3610 10054 3619 10060 3630C 10066 3641 10077 3650 10084 3650C 10091 3650 10105 3659 10115 3670C 10125 3681 10146 3690 10162 3690C 10178 3690 10198 3699 10207 3710C 10217 3721 10237 3730 10253 3730C 10268 3730 10283 3736 10286 3744C 10289 3752 10309 3761 10331 3765C 10353 3769 10370 3777 10370 3785C 10370 3792 10387 3800 10409 3804C 10430 3807 10450 3817 10454 3825C 10457 3834 10472 3840 10490 3840C 10509 3840 10524 3847 10532 3860C 10541 3874 10556 3880 10582 3880C 10613 3880 10620 3884 10620 3900C 10620 3918 10627 3920 10676 3920C 10723 3920 10733 3923 10737 3940C 10741 3956 10751 3960 10790 3960C 10821 3960 10842 3965 10850 3975C 10857 3984 10870 3990 10879 3989C 10909 3985 10972 4003 10977 4016C 10980 4025 10997 4030 11020 4030C 11042 4030 11068 4038 11083 4050C 11102 4065 11123 4070 11168 4070C 11237 4070 11260 4076 11260 4096C 11260 4106 11275 4110 11316 4110C 11363 4110 11373 4113 11377 4130C 11382 4148 11391 4150 11460 4150C 11515 4150 11541 4154 11549 4164C 11556 4172 11584 4181 11613 4185C 11642 4189 11674 4198 11685 4204C 11696 4211 11729 4219 11759 4222C 11793 4225 11818 4234 11825 4244C 11832 4253 11845 4260 11854 4260C 11863 4260 11870 4268 11870 4280C 11870 4293 11877 4300 11890 4300C 11901 4300 11918 4309 11927 4320C 11937 4331 11954 4340 11966 4340C 11979 4340 11990 4332 11993 4320C 11997 4303 12007 4300 12050 4300C 12093 4300 12103 4303 12107 4320C 12111 4337 12121 4340 12161 4340C 12199 4340 12213 4344 12222 4360C 12231 4374 12246 4380 12272 4380C 12298 4380 12310 4384 12310 4394C 12310 4403 12325 4411 12350 4415C 12375 4419 12390 4427 12390 4436C 12390 4445 12402 4450 12426 4450C 12453 4450 12463 4455 12467 4469C 12470 4481 12484 4490 12506 4495C 12525 4498 12544 4508 12547 4516C 12550 4524 12566 4530 12587 4530C 12613 4530 12623 4535 12627 4550C 12630 4561 12641 4570 12651 4570C 12662 4570 12679 4579 12690 4590C 12701 4601 12719 4610 12730 4610C 12741 4610 12750 4617 12750 4625C 12750 4633 12757 4640 12765 4640C 12773 4640 12784 4649 12790 4660C 12796 4671 12807 4680 12814 4680C 12822 4680 12830 4689 12833 4700C 12836 4712 12847 4720 12858 4720C 12889 4720 12910 4731 12910 4746C 12910 4754 12919 4760 12930 4760C 12943 4760 12950 4767 12950 4780C 12950 4793 12957 4800 12970 4800C 12983 4800 12990 4807 12990 4819C 12990 4830 13001 4852 13015 4867C 13060 4918 13064 4923 13081 4957C 13090 4975 13094 4993 13089 4996C 13076 5003 13078 5044 13091 5057C 13099 5065 13095 5072 13079 5084C 13062 5096 13032 5100 12968 5100C 12887 5100 12880 5098 12880 5080C 12880 5066 12874 5060 12858 5061C 12841 5062 12839 5063 12853 5067C 12865 5070 12870 5082 12870 5106L12870 5106L12870 5140L12795 5140C 12722 5140 12720 5141 12732 5160C 12744 5178 12756 5180 12887 5180C 13019 5180 13029 5181 13035 5199C 13041 5219 13041 5219 13061 5199C 13073 5187 13094 5180 13120 5180zM12200 5056C 12200 5038 12185 5020 12169 5020C 12157 5020 12150 5013 12150 5001C 12150 4991 12143 4979 12134 4976C 12125 4973 12120 4961 12122 4948C 12124 4931 12135 4923 12163 4916C 12195 4908 12200 4903 12196 4886C 12193 4874 12190 4850 12190 4832C 12190 4807 12185 4797 12170 4793C 12159 4790 12150 4779 12150 4769C 12150 4758 12143 4750 12135 4750C 12127 4750 12120 4745 12120 4740C 12120 4734 12109 4725 12095 4720C 12081 4715 12070 4704 12070 4695C 12070 4687 12063 4680 12054 4680C 12045 4680 12036 4671 12033 4660C 12030 4649 12022 4640 12014 4640C 12007 4640 11996 4631 11990 4620C 11984 4609 11973 4600 11965 4600C 11957 4600 11950 4593 11950 4585C 11950 4577 11942 4570 11932 4570C 11923 4570 11909 4561 11902 4550C 11895 4539 11879 4530 11866 4530C 11854 4530 11835 4521 11825 4510C 11815 4499 11796 4490 11783 4490C 11767 4490 11756 4483 11753 4470C 11750 4459 11739 4450 11729 4450C 11717 4450 11710 4443 11710 4430C 11710 4414 11703 4410 11672 4410C 11651 4410 11625 4404 11614 4396C 11603 4388 11577 4378 11556 4375C 11535 4371 11516 4361 11513 4354C 11510 4345 11492 4340 11465 4340C 11418 4340 11360 4323 11360 4309C 11360 4304 11311 4300 11251 4300C 11163 4300 11141 4303 11136 4315C 11133 4323 11123 4330 11115 4330C 11101 4330 11102 4334 11119 4356C 11132 4372 11140 4397 11140 4420C 11140 4449 11144 4459 11160 4463C 11175 4467 11180 4477 11180 4499C 11180 4528 11182 4530 11216 4530C 11243 4530 11253 4535 11257 4550C 11260 4561 11271 4570 11281 4570C 11293 4570 11300 4577 11300 4590C 11300 4603 11307 4610 11320 4610C 11331 4610 11340 4617 11340 4625C 11340 4633 11346 4640 11354 4640C 11362 4640 11375 4648 11382 4658C 11389 4668 11403 4679 11413 4683C 11422 4686 11430 4696 11430 4705C 11430 4715 11440 4720 11464 4720C 11489 4720 11499 4725 11503 4740C 11507 4755 11517 4760 11540 4760C 11563 4760 11573 4765 11577 4780C 11580 4791 11590 4800 11599 4800C 11608 4800 11623 4809 11633 4820C 11642 4831 11659 4840 11670 4840C 11681 4840 11693 4847 11696 4855C 11700 4863 11711 4870 11722 4870C 11733 4870 11744 4878 11747 4890C 11751 4906 11761 4910 11796 4910C 11828 4910 11845 4916 11857 4930C 11868 4942 11887 4950 11907 4950C 11930 4950 11940 4955 11945 4970C 11950 4985 11960 4990 11990 4990C 12038 4990 12060 4998 12060 5016C 12060 5026 12073 5030 12105 5030C 12138 5030 12150 5034 12150 5045C 12150 5054 12159 5060 12175 5060C 12189 5060 12200 5058 12200 5056zM12984 4989C 12981 4927 12964 4897 12883 4818C 12786 4723 12720 4673 12570 4583C 12517 4550 12342 4466 12236 4421C 12187 4400 12126 4393 12132 4409C 12135 4419 12220 4487 12595 4785C 12733 4894 12861 4996 12880 5012C 12906 5033 12924 5039 12950 5037C 12985 5035 12985 5035 12984 4989zM11670 3331C 11670 3301 11665 3280 11658 3277C 11648 3273 11648 3270 11658 3259C 11674 3241 11673 3230 11655 3230C 11646 3230 11637 3223 11633 3214C 11624 3190 11581 3150 11565 3150C 11557 3150 11550 3141 11550 3130C 11550 3117 11543 3110 11530 3110C 11517 3110 11510 3103 11510 3090C 11510 3079 11503 3070 11496 3070C 11478 3070 11430 3027 11430 3011C 11430 3005 11421 3000 11410 3000C 11397 3000 11390 2993 11390 2980C 11390 2964 11383 2960 11354 2960C 11327 2960 11317 2955 11313 2940C 11310 2929 11300 2920 11291 2920C 11282 2920 11268 2911 11260 2900C 11252 2888 11234 2880 11218 2880C 11200 2880 11190 2875 11190 2865C 11190 2857 11181 2850 11171 2850C 11160 2850 11148 2841 11145 2830C 11140 2816 11130 2810 11108 2810C 11088 2810 11077 2804 11073 2792C 11070 2779 11058 2773 11032 2772C 11012 2770 10983 2761 10968 2750C 10953 2739 10932 2730 10922 2730C 10911 2730 10891 2721 10877 2710C 10863 2699 10838 2690 10821 2690C 10801 2690 10790 2685 10790 2676C 10790 2666 10773 2659 10734 2654C 10701 2650 10676 2642 10673 2634C 10670 2626 10655 2620 10640 2620C 10601 2620 10580 2611 10580 2594C 10580 2584 10567 2580 10534 2580C 10496 2580 10489 2583 10492 2598C 10494 2610 10507 2616 10538 2618C 10572 2621 10580 2625 10580 2641C 10580 2653 10587 2660 10600 2660C 10631 2660 10627 2721 10594 2757C 10574 2778 10570 2791 10574 2814C 10577 2829 10580 2860 10580 2881C 10580 2912 10584 2920 10598 2920C 10607 2920 10620 2928 10627 2939C 10633 2949 10652 2960 10669 2963C 10686 2967 10700 2976 10700 2984C 10700 2991 10709 3000 10720 3003C 10731 3006 10740 3015 10740 3024C 10740 3033 10748 3040 10760 3040C 10773 3040 10780 3047 10780 3060C 10780 3073 10787 3080 10800 3080C 10811 3080 10820 3087 10820 3095C 10820 3103 10827 3110 10835 3110C 10843 3110 10854 3119 10860 3130C 10867 3143 10881 3150 10899 3150C 10914 3150 10935 3159 10945 3170C 10955 3181 10974 3190 10987 3190C 11003 3190 11014 3197 11017 3210C 11021 3225 11031 3230 11057 3230C 11083 3230 11093 3235 11097 3250C 11100 3261 11110 3270 11120 3270C 11129 3270 11149 3279 11163 3290C 11177 3302 11203 3310 11224 3310C 11248 3310 11260 3315 11260 3324C 11260 3333 11277 3339 11316 3342C 11349 3345 11378 3353 11388 3363C 11401 3377 11427 3380 11537 3380L11537 3380L11670 3380L11670 3331zM10530 3280C 10548 3269 10575 3293 10275 3055C 10138 2946 9962 2806 9884 2744C 9691 2590 9657 2568 9625 2576C 9581 2587 9540 2633 9540 2673C 9540 2763 9717 2929 9964 3069C 10023 3102 10074 3130 10076 3130C 10079 3130 10107 3142 10138 3156C 10239 3202 10258 3210 10267 3210C 10271 3210 10288 3217 10304 3225C 10320 3234 10350 3245 10369 3250C 10389 3255 10423 3265 10445 3274C 10492 3292 10510 3293 10530 3280z" stroke="none" fill="#000000" fill-rule="nonzero" />
        <path d="M3480 5401C 3480 5391 3495 5371 3513 5358C 3621 5274 3678 5222 3671 5211C 3667 5205 3624 5190 3576 5179C 3474 5154 3412 5117 3359 5046C 3284 4947 3285 4859 3361 4727C 3408 4647 3556 4489 3685 4382C 3729 4345 3767 4313 3770 4310C 3780 4299 3918 4201 4003 4144C 4170 4033 4192 4019 4287 3969C 4324 3949 4378 3919 4406 3903C 4499 3847 4798 3710 4955 3650C 4988 3637 5029 3621 5047 3614C 5064 3606 5084 3600 5091 3600C 5099 3600 5127 3591 5155 3581C 5182 3571 5225 3557 5250 3550C 5275 3544 5318 3532 5345 3525C 5696 3425 5744 3412 5902 3375C 5937 3367 5983 3353 6005 3343C 6027 3333 6161 3233 6303 3120C 6446 3007 6610 2877 6668 2831C 6727 2786 6791 2734 6812 2716C 6832 2699 6887 2656 6934 2620C 7013 2560 7035 2530 7010 2515C 6994 2505 6761 2530 6674 2551C 6629 2561 6585 2570 6577 2570C 6539 2570 6373 2625 6348 2646C 6322 2667 6321 2669 6340 2675C 6367 2684 6400 2728 6400 2757C 6400 2819 6292 2943 6140 3054C 6099 3084 6060 3113 6054 3118C 6048 3124 6030 3135 6014 3144C 5998 3153 5972 3169 5955 3180C 5894 3219 5659 3330 5636 3330C 5630 3330 5612 3337 5596 3345C 5570 3359 5530 3370 5402 3401C 5379 3407 5310 3410 5250 3408C 5150 3405 5139 3403 5115 3380C 5091 3358 5089 3349 5092 3303C 5105 3148 5384 2911 5797 2706C 5870 2670 5935 2640 5943 2640C 5950 2640 5960 2636 5966 2631C 5975 2622 6063 2588 6130 2569C 6149 2563 6179 2552 6197 2544C 6214 2536 6234 2530 6242 2530C 6249 2530 6284 2521 6320 2511C 6577 2433 6848 2384 7091 2372L7091 2372L7247 2364L7371 2270C 7439 2218 7520 2154 7550 2128C 7645 2044 7739 2010 7784 2043C 7801 2056 7801 2057 7779 2072C 7766 2081 7737 2104 7715 2125C 7693 2145 7635 2192 7585 2230C 7438 2341 7413 2368 7440 2385C 7445 2388 7483 2399 7524 2410C 7670 2447 7772 2517 7821 2611C 7879 2726 7801 2879 7574 3100C 7444 3226 7348 3304 7095 3488C 7041 3527 6730 3706 6699 3715C 6686 3719 6668 3728 6660 3735C 6652 3743 6633 3751 6618 3755C 6603 3759 6586 3768 6579 3776C 6573 3784 6562 3790 6554 3790C 6547 3790 6503 3808 6456 3830C 6409 3852 6365 3870 6358 3870C 6350 3870 6335 3877 6324 3885C 6314 3893 6298 3900 6290 3900C 6281 3900 6257 3909 6236 3919C 6215 3930 6185 3942 6168 3945C 6152 3949 6127 3958 6112 3966C 6097 3974 6079 3980 6072 3980C 6065 3980 6038 3988 6012 3999C 5986 4009 5947 4022 5925 4028C 5903 4034 5854 4048 5815 4060C 5777 4072 5718 4087 5685 4094C 5652 4101 5609 4112 5590 4118C 5557 4129 5500 4144 5370 4176C 5197 4217 5062 4256 5047 4268C 4943 4349 4366 4806 4228 4918C 4094 5025 4084 5035 4100 5045C 4119 5057 4284 5050 4341 5036C 4371 5028 4420 5019 4450 5015C 4480 5011 4530 4997 4560 4983L4560 4983L4615 4959L4588 4938C 4553 4914 4551 4866 4580 4805C 4604 4756 4720 4627 4780 4585C 4803 4569 4843 4539 4868 4519C 4915 4483 5094 4379 5160 4349C 5179 4340 5213 4325 5235 4315C 5433 4225 5713 4179 5796 4223C 5864 4259 5859 4331 5781 4434C 5725 4508 5673 4557 5581 4622C 5545 4648 5506 4676 5495 4684C 5444 4723 5419 4740 5332 4791C 5181 4878 5022 4958 4951 4981C 4895 4999 4824 5026 4803 5038C 4791 5045 4775 5050 4768 5050C 4761 5050 4726 5059 4690 5070C 4454 5141 4311 5168 4035 5190C 3958 5197 3882 5208 3865 5215C 3849 5222 3790 5264 3735 5308C 3634 5390 3575 5420 3513 5420C 3487 5420 3480 5416 3480 5401zM3984 4978C 4041 4933 4492 4575 4620 4472C 4678 4426 4727 4384 4728 4379C 4734 4363 4673 4370 4624 4391C 4416 4480 4305 4538 4173 4626C 4082 4686 3917 4837 3895 4880C 3878 4913 3866 4976 3874 4995C 3884 5021 3938 5013 3984 4978zM6442 3234C 6457 3226 6477 3220 6487 3220C 6497 3219 6523 3211 6545 3200C 6567 3189 6591 3181 6598 3180C 6606 3180 6624 3174 6638 3166C 6665 3152 6732 3121 6780 3101C 6794 3095 6812 3086 6820 3080C 6828 3075 6873 3050 6920 3024C 7007 2976 7196 2837 7238 2791C 7284 2741 7320 2676 7320 2644C 7320 2576 7236 2523 7181 2558C 7143 2583 7053 2653 6679 2950C 6496 3096 6339 3221 6330 3227C 6317 3238 6317 3241 6330 3250C 6348 3262 6403 3254 6442 3234z" stroke="none" fill="#000000" fill-rule="nonzero" />
	</g>
</g>
</svg>